<svg xmlns="http://www.w3.org/2000/svg" viewBox="0 0 800 380" role="img" preserveAspectRatio="xMidYMid slice">
<defs>
    <linearGradient id="bg" x1="0" y1="0" x2="0" y2="1">
      <stop offset="0" stop-color="#e7d7de"/>
      <stop offset="1" stop-color="#FFF8EC"/>
    </linearGradient>
    <radialGradient id="halo" cx="0.5" cy="0.5" r="0.5">
      <stop offset="0" stop-color="#c39bad"/>
      <stop offset="1" stop-color="#ffffff"/>
    </radialGradient>
  </defs>
<rect width="800" height="380" fill="url(#bg)"/>
<g fill="#7A2048" opacity="0.07"><rect x="325" y="150" width="150" height="26" rx="4"/><rect x="336" y="124" width="128" height="26" rx="4"/><rect x="347" y="98" width="106" height="26" rx="4"/><rect x="358" y="72" width="84" height="26" rx="4"/><rect x="369" y="46" width="62" height="26" rx="4"/><path d="M380 46 h40 l-8 -20 h-24 z"/></g>
<circle cx="400" cy="200" r="120" fill="url(#halo)"/>
<g stroke="#7A2048" stroke-width="9" stroke-linecap="round" fill="none">
      <line x1="400" y1="120" x2="400" y2="290"/>
      <path d="M360 150 q0 -34 40 -34 q40 0 40 34"/>
      <line x1="360" y1="150" x2="360" y2="118"/><line x1="440" y1="150" x2="440" y2="118"/>
      <line x1="400" y1="116" x2="400" y2="96"/>
    </g><ellipse cx="400" cy="292" rx="46" ry="12" fill="#C79A2E"/>
<path d="M0 34 Q400 78 800 34" fill="none" stroke="#3F7D4F" stroke-width="3"/><circle cx="0" cy="34" r="8" fill="#C79A2E"/><circle cx="0" cy="34" r="3" fill="#551531" opacity="0.35"/><path d="M0 42 l-5 12 h10 z" fill="#3F7D4F"/><circle cx="47.05882352941176" cy="42.084978783929095" r="8" fill="#E8871E"/><circle cx="47.05882352941176" cy="42.084978783929095" r="3" fill="#551531" opacity="0.35"/><circle cx="94.11764705882352" cy="49.89463331223473" r="8" fill="#C79A2E"/><circle cx="94.11764705882352" cy="49.89463331223473" r="3" fill="#551531" opacity="0.35"/><circle cx="141.1764705882353" cy="57.16301516660366" r="8" fill="#E8871E"/><circle cx="141.1764705882353" cy="57.16301516660366" r="3" fill="#551531" opacity="0.35"/><path d="M141.1764705882353 65.16301516660366 l-5 12 h10 z" fill="#3F7D4F"/><circle cx="188.23529411764704" cy="63.64260832044852" r="8" fill="#C79A2E"/><circle cx="188.23529411764704" cy="63.64260832044852" r="3" fill="#551531" opacity="0.35"/><circle cx="235.29411764705884" cy="69.11275800033053" r="8" fill="#E8871E"/><circle cx="235.29411764705884" cy="69.11275800033053" r="3" fill="#551531" opacity="0.35"/><circle cx="282.3529411764706" cy="73.38718481962275" r="8" fill="#C79A2E"/><circle cx="282.3529411764706" cy="73.38718481962275" r="3" fill="#551531" opacity="0.35"/><path d="M282.3529411764706 81.38718481962275 l-5 12 h10 z" fill="#3F7D4F"/><circle cx="329.4117647058823" cy="76.32032829960403" r="8" fill="#E8871E"/><circle cx="329.4117647058823" cy="76.32032829960403" r="3" fill="#551531" opacity="0.35"/><circle cx="376.4705882352941" cy="77.81230375698152" r="8" fill="#C79A2E"/><circle cx="376.4705882352941" cy="77.81230375698152" r="3" fill="#551531" opacity="0.35"/><circle cx="423.5294117647059" cy="77.81230375698152" r="8" fill="#E8871E"/><circle cx="423.5294117647059" cy="77.81230375698152" r="3" fill="#551531" opacity="0.35"/><path d="M423.5294117647059 85.81230375698152 l-5 12 h10 z" fill="#3F7D4F"/><circle cx="470.5882352941177" cy="76.32032829960403" r="8" fill="#C79A2E"/><circle cx="470.5882352941177" cy="76.32032829960403" r="3" fill="#551531" opacity="0.35"/><circle cx="517.6470588235294" cy="73.38718481962275" r="8" fill="#E8871E"/><circle cx="517.6470588235294" cy="73.38718481962275" r="3" fill="#551531" opacity="0.35"/><circle cx="564.7058823529412" cy="69.11275800033054" r="8" fill="#C79A2E"/><circle cx="564.7058823529412" cy="69.11275800033054" r="3" fill="#551531" opacity="0.35"/><path d="M564.7058823529412 77.11275800033054 l-5 12 h10 z" fill="#3F7D4F"/><circle cx="611.7647058823529" cy="63.64260832044853" r="8" fill="#E8871E"/><circle cx="611.7647058823529" cy="63.64260832044853" r="3" fill="#551531" opacity="0.35"/><circle cx="658.8235294117646" cy="57.16301516660367" r="8" fill="#C79A2E"/><circle cx="658.8235294117646" cy="57.16301516660367" r="3" fill="#551531" opacity="0.35"/><circle cx="705.8823529411765" cy="49.894633312234745" r="8" fill="#E8871E"/><circle cx="705.8823529411765" cy="49.894633312234745" r="3" fill="#551531" opacity="0.35"/><path d="M705.8823529411765 57.894633312234745 l-5 12 h10 z" fill="#3F7D4F"/><circle cx="752.9411764705882" cy="42.084978783929095" r="8" fill="#C79A2E"/><circle cx="752.9411764705882" cy="42.084978783929095" r="3" fill="#551531" opacity="0.35"/><circle cx="800" cy="34.00000000000001" r="8" fill="#E8871E"/><circle cx="800" cy="34.00000000000001" r="3" fill="#551531" opacity="0.35"/>
<g><ellipse cx="80" cy="334" rx="7" ry="3" transform="rotate(0 80 334)" fill="#E8871E" opacity="0.55"/><ellipse cx="74.14213562373095" cy="348.14213562373095" rx="7" ry="3" transform="rotate(45 74.14213562373095 348.14213562373095)" fill="#E8871E" opacity="0.55"/><ellipse cx="60" cy="354" rx="7" ry="3" transform="rotate(90 60 354)" fill="#E8871E" opacity="0.55"/><ellipse cx="45.85786437626905" cy="348.14213562373095" rx="7" ry="3" transform="rotate(135 45.85786437626905 348.14213562373095)" fill="#E8871E" opacity="0.55"/><ellipse cx="40" cy="334" rx="7" ry="3" transform="rotate(180 40 334)" fill="#E8871E" opacity="0.55"/><ellipse cx="45.85786437626905" cy="319.85786437626905" rx="7" ry="3" transform="rotate(225 45.85786437626905 319.85786437626905)" fill="#E8871E" opacity="0.55"/><ellipse cx="59.99999999999999" cy="314" rx="7" ry="3" transform="rotate(270 59.99999999999999 314)" fill="#E8871E" opacity="0.55"/><ellipse cx="74.14213562373095" cy="319.85786437626905" rx="7" ry="3" transform="rotate(315 74.14213562373095 319.85786437626905)" fill="#E8871E" opacity="0.55"/><circle cx="60" cy="334" r="9" fill="#C79A2E"/><circle cx="60" cy="334" r="4" fill="#7A2048"/></g><g><ellipse cx="760" cy="334" rx="7" ry="3" transform="rotate(0 760 334)" fill="#E8871E" opacity="0.55"/><ellipse cx="754.142135623731" cy="348.14213562373095" rx="7" ry="3" transform="rotate(45 754.142135623731 348.14213562373095)" fill="#E8871E" opacity="0.55"/><ellipse cx="740" cy="354" rx="7" ry="3" transform="rotate(90 740 354)" fill="#E8871E" opacity="0.55"/><ellipse cx="725.857864376269" cy="348.14213562373095" rx="7" ry="3" transform="rotate(135 725.857864376269 348.14213562373095)" fill="#E8871E" opacity="0.55"/><ellipse cx="720" cy="334" rx="7" ry="3" transform="rotate(180 720 334)" fill="#E8871E" opacity="0.55"/><ellipse cx="725.857864376269" cy="319.85786437626905" rx="7" ry="3" transform="rotate(225 725.857864376269 319.85786437626905)" fill="#E8871E" opacity="0.55"/><ellipse cx="740" cy="314" rx="7" ry="3" transform="rotate(270 740 314)" fill="#E8871E" opacity="0.55"/><ellipse cx="754.142135623731" cy="319.85786437626905" rx="7" ry="3" transform="rotate(315 754.142135623731 319.85786437626905)" fill="#E8871E" opacity="0.55"/><circle cx="740" cy="334" r="9" fill="#C79A2E"/><circle cx="740" cy="334" r="4" fill="#7A2048"/></g>
</svg>
